<?xml version="1.0" encoding="UTF-8" standalone="no"?>
<!DOCTYPE svg PUBLIC "-//W3C//DTD SVG 1.0//EN"
 "http://www.w3.org/TR/2001/REC-SVG-20010904/DTD/svg10.dtd" [
 <!ATTLIST svg xmlns:xlink CDATA #FIXED "http://www.w3.org/1999/xlink">
]>
<!-- Generated by Graphviz version 2.18 (Wed Aug &#160;6 10:29:47 UTC 2008)
     For user: (phlip) Phlip,,, -->
<!-- Title: mind_map Pages: 1 -->
<svg width="315pt" height="208pt"
 viewBox="0.00 0.00 315.00 208.00" xmlns="http://www.w3.org/2000/svg" xmlns:xlink="http://www.w3.org/1999/xlink">
<g id="graph0" class="graph" transform="scale(1 1) rotate(0) translate(4 204)">
<title>mind_map</title>
<polygon style="fill:none;stroke:none;" points="-4,4 -4,-204 311,-204 311,4 -4,4"/>
<!-- post_7 -->
<g id="node1" class="node"><title>post_7</title>
<polygon style="fill:white;stroke:white;" points="131,-195.5 21,-195.5 21,-172.5 131,-172.5 131,-195.5"/>
<polygon style="fill:none;stroke:white;" points="135,-199.5 17,-199.5 17,-168.5 135,-168.5 135,-199.5"/>
<text text-anchor="middle" x="76" y="-180.7" style="font-family:Times New Roman;font-size:12.00;">C30, C60, C90, Go</text>
</g>
<!-- post_3 -->
<g id="node2" class="node"><title>post_3</title>
<polygon style="fill:white;stroke:white;" points="70,-132 2.73566e-14,-132 6.33868e-15,-112 70,-112 70,-132"/>
<text text-anchor="middle" x="35" y="-119.9" style="font-family:Times New Roman;font-size:9.00;">Diamond Dogs</text>
</g>
<!-- post_7&#45;&#45;post_3 -->
<g id="edge2" class="edge"><title>post_7&#45;&#45;post_3</title>
<path style="fill:none;stroke:black;" d="M66,-168C59,-157 49,-142 42,-132"/>
</g>
<!-- post_2 -->
<g id="node7" class="node"><title>post_2</title>
<polygon style="fill:white;stroke:white;" points="148,-132 88,-132 88,-112 148,-112 148,-132"/>
<text text-anchor="middle" x="118" y="-119.9" style="font-family:Times New Roman;font-size:9.00;">Surfin&#39; USA</text>
</g>
<!-- post_7&#45;&#45;post_2 -->
<g id="edge12" class="edge"><title>post_7&#45;&#45;post_2</title>
<path style="fill:none;stroke:black;" d="M87,-168C94,-157 104,-142 111,-132"/>
</g>
<!-- post_1 -->
<g id="node3" class="node"><title>post_1</title>
<polygon style="fill:white;stroke:white;" points="211,-76 105,-76 105,-56 211,-56 211,-76"/>
<text text-anchor="middle" x="158" y="-63.9" style="font-family:Times New Roman;font-size:9.00;">Joan Crawford has Risen</text>
</g>
<!-- post_3&#45;&#45;post_1 -->
<g id="edge4" class="edge"><title>post_3&#45;&#45;post_1</title>
<path style="fill:none;stroke:black;" d="M57,-112C79,-102 113,-86 136,-76"/>
</g>
<!-- post_5 -->
<g id="node4" class="node"><title>post_5</title>
<polygon style="fill:white;stroke:white;" points="57,-76 13,-76 13,-56 57,-56 57,-76"/>
<text text-anchor="middle" x="35" y="-63.9" style="font-family:Times New Roman;font-size:9.00;">Lithium</text>
</g>
<!-- post_3&#45;&#45;post_5 -->
<g id="edge6" class="edge"><title>post_3&#45;&#45;post_5</title>
<path style="fill:none;stroke:black;" d="M35,-112C35,-102 35,-87 35,-76"/>
</g>
<!-- post_4 -->
<g id="node5" class="node"><title>post_4</title>
<polygon style="fill:white;stroke:white;" points="241,-20 185,-20 185,-7.10543e-15 241,-1.77636e-15 241,-20"/>
<text text-anchor="middle" x="213" y="-7.9" style="font-family:Times New Roman;font-size:9.00;">Sardonicus</text>
</g>
<!-- post_1&#45;&#45;post_4 -->
<g id="edge8" class="edge"><title>post_1&#45;&#45;post_4</title>
<path style="fill:none;stroke:black;" d="M168,-56C178,-46 193,-31 203,-20"/>
</g>
<!-- post_6 -->
<g id="node6" class="node"><title>post_6</title>
<polygon style="fill:white;stroke:white;" points="307,-76 229,-76 229,-56 307,-56 307,-76"/>
<text text-anchor="middle" x="268" y="-63.9" style="font-family:Times New Roman;font-size:9.00;">One Step Beyond</text>
</g>
<!-- post_6&#45;&#45;post_4 -->
<g id="edge10" class="edge"><title>post_6&#45;&#45;post_4</title>
<path style="fill:none;stroke:black;" d="M258,-56C248,-46 233,-31 223,-20"/>
</g>
<!-- post_8 -->
<g id="node8" class="node"><title>post_8</title>
<polygon style="fill:white;stroke:white;" points="210,-132 166,-132 166,-112 210,-112 210,-132"/>
<text text-anchor="middle" x="188" y="-119.9" style="font-family:Times New Roman;font-size:9.00;">Jammin&#39;</text>
</g>
<!-- post_8&#45;&#45;post_1 -->
<g id="edge14" class="edge"><title>post_8&#45;&#45;post_1</title>
<path style="fill:none;stroke:black;" d="M183,-112C177,-102 169,-87 164,-76"/>
</g>
</g>
</svg>
